<svg xmlns="http://www.w3.org/2000/svg" viewBox="0 0 1400 788" width="1400" height="788">

  <!-- ── Background ── -->
  <rect width="1400" height="788" fill="#DC4F3D"/>
  <!-- Subtle depth circles -->
  <circle cx="700" cy="980" r="720" fill="rgba(0,0,0,.06)"/>
  <circle cx="1360" cy="80" r="220" fill="rgba(255,255,255,.04)"/>

  <!-- ── Left decorations ── -->
  <line x1="44" y1="88"  x2="112" y2="88"  stroke="#fff" stroke-width="3" stroke-linecap="round" opacity=".52"/>
  <line x1="44" y1="106" x2="112" y2="106" stroke="#fff" stroke-width="3" stroke-linecap="round" opacity=".52"/>
  <line x1="44" y1="122" x2="78"  y2="122" stroke="#fff" stroke-width="3" stroke-linecap="round" opacity=".3"/>
  <!-- Hexagon -->
  <polygon points="62,292 100,270 138,292 138,336 100,358 62,336" fill="none" stroke="#fff" stroke-width="2" opacity=".42"/>
  <!-- Bottom-left bracket -->
  <rect x="36" y="508" width="66" height="66" rx="5" fill="none" stroke="#fff" stroke-width="1.8" opacity=".36"/>
  <line x1="102" y1="541" x2="178" y2="541" stroke="#fff" stroke-width="1.5" opacity=".26"/>
  <circle cx="178" cy="541" r="4" fill="#fff" opacity=".42"/>

  <!-- ── Monitor frame ── -->
  <rect x="138" y="32" width="752" height="552" rx="18" fill="#fff"/>
  <!-- Camera notch -->
  <rect x="488" y="42" width="64" height="10" rx="5" fill="#e8dfd8"/>
  <!-- Screen -->
  <rect x="156" y="56" width="716" height="514" rx="10" fill="#f2ebe6"/>

  <!-- IDE sidebar -->
  <rect x="156" y="56" width="152" height="514" rx="0" fill="rgba(0,0,0,.055)"/>
  <rect x="176" y="84"  width="98"  height="9" rx="4.5" fill="rgba(0,0,0,.18)"/>
  <rect x="188" y="102" width="78"  height="8" rx="4"   fill="rgba(0,0,0,.13)"/>
  <rect x="188" y="118" width="88"  height="8" rx="4"   fill="#DC4F3D" opacity=".4"/>
  <rect x="188" y="134" width="66"  height="8" rx="4"   fill="rgba(0,0,0,.11)"/>
  <rect x="176" y="154" width="106" height="8" rx="4"   fill="rgba(0,0,0,.1)"/>
  <rect x="176" y="170" width="90"  height="8" rx="4"   fill="rgba(0,0,0,.08)"/>
  <rect x="176" y="186" width="112" height="8" rx="4"   fill="rgba(0,0,0,.07)"/>
  <rect x="176" y="202" width="82"  height="8" rx="4"   fill="rgba(0,0,0,.06)"/>
  <rect x="188" y="222" width="72"  height="7" rx="3.5" fill="rgba(0,0,0,.08)"/>
  <rect x="188" y="236" width="94"  height="7" rx="3.5" fill="rgba(0,0,0,.06)"/>

  <!-- Code area line numbers -->
  <rect x="308" y="84"  width="18" height="8" rx="4" fill="rgba(0,0,0,.14)"/>
  <rect x="308" y="104" width="18" height="8" rx="4" fill="rgba(0,0,0,.11)"/>
  <rect x="308" y="124" width="18" height="8" rx="4" fill="rgba(0,0,0,.11)"/>
  <rect x="308" y="144" width="18" height="8" rx="4" fill="rgba(0,0,0,.11)"/>
  <rect x="308" y="164" width="18" height="8" rx="4" fill="rgba(0,0,0,.11)"/>
  <rect x="308" y="184" width="18" height="8" rx="4" fill="rgba(0,0,0,.09)"/>
  <rect x="308" y="204" width="18" height="8" rx="4" fill="rgba(0,0,0,.09)"/>
  <rect x="308" y="224" width="18" height="8" rx="4" fill="rgba(0,0,0,.09)"/>
  <rect x="308" y="244" width="18" height="8" rx="4" fill="rgba(0,0,0,.09)"/>
  <rect x="308" y="264" width="18" height="8" rx="4" fill="rgba(0,0,0,.09)"/>
  <rect x="308" y="284" width="18" height="8" rx="4" fill="rgba(0,0,0,.09)"/>
  <rect x="308" y="304" width="18" height="8" rx="4" fill="rgba(0,0,0,.09)"/>
  <rect x="308" y="324" width="18" height="8" rx="4" fill="rgba(0,0,0,.09)"/>
  <rect x="308" y="344" width="18" height="8" rx="4" fill="rgba(0,0,0,.09)"/>
  <rect x="308" y="364" width="18" height="8" rx="4" fill="rgba(0,0,0,.07)"/>

  <!-- Code rows -->
  <rect x="340" y="84"  width="164" height="10" rx="5" fill="#2a1614" opacity=".65"/>
  <rect x="514" y="84"  width="112" height="10" rx="5" fill="#DC4F3D"  opacity=".55"/>
  <rect x="636" y="84"  width="74"  height="10" rx="5" fill="#2a1614"  opacity=".35"/>
  <rect x="340" y="104" width="420" height="13" rx="6.5" fill="#F0A090"/>
  <rect x="340" y="104" width="296" height="13" rx="6.5" fill="#8B2020"/>
  <rect x="340" y="126" width="138" height="10" rx="5" fill="#2a1614" opacity=".6"/>
  <rect x="488" y="126" width="208" height="10" rx="5" fill="#2a1614" opacity=".4"/>
  <rect x="340" y="146" width="390" height="13" rx="6.5" fill="#F0A090"/>
  <rect x="340" y="146" width="276" height="13" rx="6.5" fill="#8B2020"/>
  <rect x="340" y="168" width="184" height="10" rx="5" fill="#2a1614" opacity=".58"/>
  <rect x="534" y="168" width="132" height="10" rx="5" fill="#2a1614" opacity=".38"/>
  <rect x="340" y="188" width="148" height="10" rx="5" fill="#2a1614" opacity=".5"/>
  <rect x="340" y="208" width="360" height="13" rx="6.5" fill="#F0A090"/>
  <rect x="340" y="208" width="252" height="13" rx="6.5" fill="#8B2020"/>
  <rect x="340" y="230" width="172" height="10" rx="5" fill="#2a1614" opacity=".55"/>
  <rect x="340" y="250" width="244" height="10" rx="5" fill="#2a1614" opacity=".4"/>
  <rect x="594" y="250" width="94"  height="10" rx="5" fill="#2a1614" opacity=".26"/>
  <rect x="340" y="270" width="338" height="13" rx="6.5" fill="#F0A090"/>
  <rect x="340" y="270" width="234" height="13" rx="6.5" fill="#8B2020"/>
  <rect x="340" y="292" width="156" height="10" rx="5" fill="#2a1614" opacity=".5"/>
  <rect x="340" y="312" width="198" height="10" rx="5" fill="#2a1614" opacity=".38"/>
  <rect x="340" y="332" width="316" height="13" rx="6.5" fill="#F0A090"/>
  <rect x="340" y="332" width="218" height="13" rx="6.5" fill="#8B2020"/>
  <rect x="340" y="354" width="144" height="10" rx="5" fill="#2a1614" opacity=".45"/>
  <rect x="340" y="374" width="186" height="10" rx="5" fill="#2a1614" opacity=".32"/>

  <!-- Terminal strip -->
  <rect x="156" y="506" width="716" height="64" fill="#1e1010"/>
  <circle cx="186" cy="524" r="5" fill="#DC4F3D" opacity=".7"/>
  <circle cx="204" cy="524" r="5" fill="#e8a200" opacity=".6"/>
  <circle cx="222" cy="524" r="5" fill="#43a047" opacity=".5"/>
  <rect x="186" y="540" width="52"  height="7" rx="3.5" fill="#DC4F3D" opacity=".65"/>
  <rect x="246" y="540" width="144" height="7" rx="3.5" fill="#fff"    opacity=".32"/>
  <rect x="186" y="554" width="196" height="7" rx="3.5" fill="#fff"    opacity=".2"/>

  <!-- Monitor stand & base -->
  <rect x="480" y="584" width="90" height="34" rx="5" fill="#e8dfd8"/>
  <rect x="420" y="616" width="210" height="14" rx="7" fill="#ddd4ce"/>

  <!-- ── Desk surface ── -->
  <rect x="90" y="632" width="800" height="10" rx="4" fill="rgba(0,0,0,.14)"/>
  <rect x="90" y="630" width="800" height="7"  rx="3" fill="rgba(255,255,255,.11)"/>

  <!-- ── Keyboard ── -->
  <rect x="258" y="642" width="308" height="26" rx="7" fill="#ece4de"/>
  <rect x="272" y="650" width="280" height="6"  rx="3" fill="rgba(0,0,0,.09)"/>
  <rect x="278" y="660" width="266" height="4"  rx="2" fill="rgba(0,0,0,.06)"/>

  <!-- ── Person (back view, sitting) ── -->
  <!-- Long dark hair -->
  <path d="M326,548 Q313,482 356,452 Q382,434 415,438 Q450,442 466,468 Q480,500 470,548 Q460,576 452,592 L380,598 Q352,590 338,568 Q324,548 326,548 Z" fill="#0d0b10"/>
  <!-- Head -->
  <ellipse cx="414" cy="492" rx="42" ry="48" fill="#0d0b10"/>
  <!-- Ear hint -->
  <path d="M371,494 Q366,485 368,476 Q370,467 378,469 Q382,479 380,490 Z" fill="#c09070" opacity=".55"/>
  <!-- Torso -->
  <path d="M316,642 Q330,582 370,560 Q396,550 428,560 Q466,580 480,642 Z" fill="#6A1A1A"/>
  <rect x="322" y="630" width="192" height="56" rx="8" fill="#6A1A1A"/>
  <!-- Arms -->
  <path d="M320,624 Q295,630 260,646" stroke="#6A1A1A" stroke-width="28" stroke-linecap="round" fill="none"/>
  <path d="M494,624 Q520,630 558,646" stroke="#6A1A1A" stroke-width="28" stroke-linecap="round" fill="none"/>
  <!-- Hands -->
  <ellipse cx="258" cy="650" rx="22" ry="11" fill="#c09070"/>
  <ellipse cx="560" cy="650" rx="22" ry="11" fill="#c09070"/>

  <!-- ── Ground line ── -->
  <line x1="52" y1="770" x2="890" y2="770" stroke="#1a1010" stroke-width="3.5" stroke-linecap="round"/>

  <!-- ── Connection lines ── -->
  <line x1="890" y1="140" x2="950" y2="140" stroke="rgba(255,255,255,.5)" stroke-width="1.8"/>
  <circle cx="890" cy="140" r="4.5" fill="#fff" opacity=".6"/>
  <line x1="890" y1="140" x2="890" y2="344" stroke="rgba(255,255,255,.28)" stroke-width="1.8"/>
  <line x1="890" y1="344" x2="964" y2="344" stroke="rgba(255,255,255,.28)" stroke-width="1.8"/>
  <circle cx="890" cy="344" r="4.5" fill="#fff" opacity=".42"/>
  <circle cx="964" cy="344" r="4.5" fill="#fff" opacity=".42"/>

  <!-- ── Speech bubble ── -->
  <rect x="950" y="50" width="394" height="172" rx="22" fill="#fff" opacity=".97"/>
  <polygon points="990,222 1022,222 1006,252" fill="#fff" opacity=".97"/>
  <rect x="982" y="86"  width="232" height="11" rx="5.5" fill="#c8bfba"/>
  <rect x="982" y="110" width="290" height="11" rx="5.5" fill="#c8bfba"/>
  <rect x="982" y="134" width="206" height="11" rx="5.5" fill="#c8bfba"/>
  <rect x="982" y="158" width="254" height="11" rx="5.5" fill="#c8bfba"/>
  <!-- Checkmark -->
  <circle cx="1300" cy="110" r="28" fill="rgba(220,79,61,.1)" stroke="#DC4F3D" stroke-width="2.2"/>
  <polyline points="1288,110 1298,122 1314,96" fill="none" stroke="#DC4F3D" stroke-width="2.8" stroke-linecap="round" stroke-linejoin="round"/>

  <!-- ── AI Brain Card ── -->
  <rect x="964" y="304" width="366" height="372" rx="24" fill="#F5AFA0" opacity=".88"/>
  <!-- Head outline -->
  <ellipse cx="1147" cy="448" rx="86" ry="100" fill="none" stroke="rgba(40,16,14,.34)" stroke-width="2.2"/>
  <!-- Ears -->
  <ellipse cx="1061" cy="450" rx="9" ry="14" fill="none" stroke="rgba(40,16,14,.28)" stroke-width="1.8"/>
  <ellipse cx="1233" cy="450" rx="9" ry="14" fill="none" stroke="rgba(40,16,14,.28)" stroke-width="1.8"/>
  <!-- Neck -->
  <line x1="1120" y1="546" x2="1120" y2="570" stroke="rgba(40,16,14,.22)" stroke-width="2"/>
  <line x1="1174" y1="546" x2="1174" y2="570" stroke="rgba(40,16,14,.22)" stroke-width="2"/>
  <!-- Chip -->
  <rect x="1112" y="408" width="70" height="70" rx="10" fill="#1a1010"/>
  <line x1="1112" y1="431" x2="1182" y2="431" stroke="rgba(255,255,255,.14)" stroke-width="1"/>
  <line x1="1112" y1="454" x2="1182" y2="454" stroke="rgba(255,255,255,.14)" stroke-width="1"/>
  <line x1="1135" y1="408" x2="1135" y2="478" stroke="rgba(255,255,255,.14)" stroke-width="1"/>
  <line x1="1159" y1="408" x2="1159" y2="478" stroke="rgba(255,255,255,.14)" stroke-width="1"/>
  <text x="1147" y="452" text-anchor="middle" font-family="'Space Mono',monospace" font-size="18" font-weight="700" fill="#fff">AI</text>
  <!-- Circuit pins -->
  <line x1="1112" y1="428" x2="1074" y2="428" stroke="rgba(40,16,14,.4)" stroke-width="1.5"/>
  <line x1="1074" y1="428" x2="1074" y2="396" stroke="rgba(40,16,14,.4)" stroke-width="1.5"/>
  <circle cx="1074" cy="396" r="4.5" fill="#1a1010"/>
  <line x1="1182" y1="428" x2="1220" y2="428" stroke="rgba(40,16,14,.4)" stroke-width="1.5"/>
  <line x1="1220" y1="428" x2="1220" y2="396" stroke="rgba(40,16,14,.4)" stroke-width="1.5"/>
  <circle cx="1220" cy="396" r="4.5" fill="#1a1010"/>
  <line x1="1112" y1="458" x2="1074" y2="458" stroke="rgba(40,16,14,.4)" stroke-width="1.5"/>
  <line x1="1074" y1="458" x2="1074" y2="490" stroke="rgba(40,16,14,.4)" stroke-width="1.5"/>
  <circle cx="1074" cy="490" r="4.5" fill="#1a1010"/>
  <line x1="1182" y1="458" x2="1220" y2="458" stroke="rgba(40,16,14,.4)" stroke-width="1.5"/>
  <line x1="1220" y1="458" x2="1220" y2="490" stroke="rgba(40,16,14,.4)" stroke-width="1.5"/>
  <circle cx="1220" cy="490" r="4.5" fill="#1a1010"/>
  <!-- Label -->
  <rect x="1106" y="548" width="82" height="26" rx="8" fill="rgba(40,16,14,.14)"/>
  <rect x="1114" y="556" width="66" height="8" rx="4" fill="rgba(40,16,14,.26)"/>
  <rect x="1118" y="568" width="48" height="5" rx="2.5" fill="rgba(40,16,14,.16)"/>

  <!-- ── Bottom-right data blocks ── -->
  <rect x="1246" y="684" width="108" height="13" rx="4.5" fill="rgba(255,255,255,.38)"/>
  <rect x="1246" y="704" width="76"  height="13" rx="4.5" fill="rgba(255,255,255,.26)"/>
  <rect x="1246" y="724" width="92"  height="13" rx="4.5" fill="rgba(255,255,255,.32)"/>
  <line x1="1354" y1="690" x2="1376" y2="690" stroke="rgba(255,255,255,.38)" stroke-width="1.5"/>
  <line x1="1376" y1="690" x2="1376" y2="654" stroke="rgba(255,255,255,.38)" stroke-width="1.5"/>
  <circle cx="1376" cy="654" r="5" fill="rgba(255,255,255,.48)"/>
  <circle cx="1360" cy="756" r="7"   fill="rgba(255,255,255,.28)"/>
  <circle cx="1386" cy="738" r="4.5" fill="rgba(255,255,255,.18)"/>
  <circle cx="1344" cy="744" r="3"   fill="rgba(255,255,255,.14)"/>

</svg>
